<?xml version="1.0" encoding="UTF-8" standalone="no"?>
<svg
   width="283mm"
   height="159mm"
   viewBox="0 0 745.60313 418.90777"
   fill-rule="evenodd"
   version="1.1"
   id="svg234"
   sodipodi:docname="logosvg.svg"
   inkscape:version="1.1.1 (3bf5ae0d25, 2021-09-20)"
   xmlns:inkscape="http://www.inkscape.org/namespaces/inkscape"
   xmlns:sodipodi="http://sodipodi.sourceforge.net/DTD/sodipodi-0.dtd"
   xmlns="http://www.w3.org/2000/svg"
   xmlns:svg="http://www.w3.org/2000/svg"
   xmlns:rdf="http://www.w3.org/1999/02/22-rdf-syntax-ns#"
   xmlns:cc="http://creativecommons.org/ns#"
   xmlns:dc="http://purl.org/dc/elements/1.1/">
  <metadata
     id="metadata240">
    <rdf:RDF>
      <cc:Work
         rdf:about="">
        <dc:format>image/svg+xml</dc:format>
        <dc:type
           rdf:resource="http://purl.org/dc/dcmitype/StillImage" />
      </cc:Work>
    </rdf:RDF>
  </metadata>
  <defs
     id="defs238" />
  <sodipodi:namedview
     pagecolor="#ffffff"
     bordercolor="#666666"
     borderopacity="1"
     objecttolerance="10"
     gridtolerance="10"
     guidetolerance="10"
     inkscape:pageopacity="0"
     inkscape:pageshadow="2"
     inkscape:window-width="1366"
     inkscape:window-height="705"
     id="namedview236"
     showgrid="false"
     units="mm"
     width="299mm"
     inkscape:zoom="0.32"
     inkscape:cx="1448.4375"
     inkscape:cy="142.1875"
     inkscape:window-x="-8"
     inkscape:window-y="32"
     inkscape:window-maximized="1"
     inkscape:current-layer="g232"
     inkscape:document-rotation="0"
     inkscape:pagecheckerboard="0"
     inkscape:document-units="mm"
     scale-x="2.63464" />
  <g
     id="g232"
     transform="matrix(0.56550747,0,0,0.56550747,35.70398,84.873098)">
    <path
       id="path1178-8"
       style="fill:#004455;fill-opacity:1;stroke:#000000;stroke-width:0;stroke-linecap:butt;stroke-linejoin:miter;stroke-miterlimit:4;stroke-dasharray:none;stroke-opacity:1"
       d="M -54.31612,-136.99654 V 13.132966 c 0.6743,27.24389 6.6028,47.41799 29.894901,72.132592 l 382.097729,382.121012 113.158,-79.2353 z m 34.008301,82.107846 438.431929,438.429264 -56.5803,39.6163 L -0.3753195,61.222156 c -10.0035995,-9.7664 -19.3038995,-22.4149 -19.9324995,-48.08919 z" />
    <path
       id="path1182-8"
       style="fill:#004455;fill-opacity:1;stroke:#000000;stroke-width:0;stroke-linecap:butt;stroke-linejoin:miter;stroke-miterlimit:4;stroke-dasharray:none;stroke-opacity:1"
       d="m -54.31612,103.49097 v 150.1297 c 0.8034,24.3177 6.1165,48.5031 29.884501,72.1454 l 155.963029,155.9656 c 19.3412,18.4659 42.2676,30.4501 72.1455,29.8819 h 150.1296 z m 34.008301,82.1079 292.003929,292.0065 h -68.0192 c -20.9442,-0.1569 -35.6161,-8.5939 -48.0892,-19.9325 L -0.3831195,301.71767 c -12.0452995,-11.5817 -19.4528995,-26.9842 -19.9246995,-48.097 z" />
    <path
       id="path1186-5"
       style="fill:#004455;fill-opacity:1;stroke:#000000;stroke-width:0;stroke-linecap:butt;stroke-linejoin:miter;stroke-miterlimit:4;stroke-dasharray:none;stroke-opacity:1"
       d="m 730.06311,-136.99654 c -27.2839,-0.08 -53.4701,6.9816 -78.0308,24.60279 l -372.6896,260.95892 97.6808,97.6782 547.32633,-383.23991 z m 0,34.01089 h 86.4207 l -435.5929,305.00202 -48.8379,-48.8405 339.4922,-237.705554 c 15.4431,-10.48528 32.9396,-18.781466 58.5179,-18.455966 z" />
    <path
       id="path1190-7"
       style="fill:#004455;fill-opacity:1;stroke:#000000;stroke-width:0;stroke-linecap:butt;stroke-linejoin:miter;stroke-miterlimit:4;stroke-dasharray:none;stroke-opacity:1"
       d="m 1026.5381,-136.99654 c -31.74359,0.6755 -57.17859,9.6311 -78.02576,24.60799 l -547.06983,383.05342 97.6782,97.6783 721.70409,-505.33971 z m 0,34.01089 h 86.4208 l -609.96819,427.10172 -48.8379,-48.8404 513.8671,-359.805354 c 21.84624,-13.951574 40.74109,-18.067366 58.51819,-18.455966 z" />
    <path
       id="path1194-6"
       style="fill:#004455;fill-opacity:1;stroke:#000000;stroke-width:0;stroke-linecap:butt;stroke-linejoin:miter;stroke-miterlimit:4;stroke-dasharray:none;stroke-opacity:1"
       d="m 979.55983,103.49097 c -28.19489,0 -54.25899,7.9932 -78.02299,24.6107 l -547.73033,383.5119 h 194.2868 c 31.4621,-0.5026 55.9221,-10.8893 78.0229,-24.608 l 547.73059,-383.5146 z m 0,34.0109 h 86.42097 l -459.36709,321.65 c -17.854,11.1537 -31.6617,18.5024 -58.5204,18.4535 h -86.4208 l 459.36953,-321.6475 c 19.0491,-11.4928 29.1718,-17.6995 58.51779,-18.456 z" />
    <path
       id="path1178-8-1"
       style="fill:#ffcc00;fill-opacity:1;stroke:#000000;stroke-width:0;stroke-linecap:butt;stroke-linejoin:miter;stroke-miterlimit:4;stroke-dasharray:none;stroke-opacity:1"
       d="M -31.240369,-69.34349 V 80.786194 c 0.674301,27.243786 6.602802,47.417866 29.8949004,72.132526 l 382.0977386,382.1209 113.1581,-79.2353 z M 2.7679307,12.76449 441.19997,451.19362 384.61967,490.80992 22.70043,128.87526 C 12.69683,119.10887 3.3965307,106.46038 2.7679307,80.786194 Z" />
    <path
       id="path1182-8-3"
       style="fill:#ffcc00;fill-opacity:1;stroke:#000000;stroke-width:0;stroke-linecap:butt;stroke-linejoin:miter;stroke-miterlimit:4;stroke-dasharray:none;stroke-opacity:1"
       d="m -31.240369,171.14409 v 150.12963 c 0.803401,24.3177 6.116502,48.5031 29.8845004,72.1454 L 154.60727,549.38472 c 19.3411,18.4659 42.2676,30.4501 72.1455,29.8819 h 150.1295 z M 2.7679307,253.25192 294.77187,545.25842 h -68.0191 c -20.9442,-0.1569 -35.6162,-8.5939 -48.0892,-19.9325 L 22.69263,369.37072 C 10.647331,357.78902 3.2397307,342.38652 2.7679307,321.27372 Z" />
    <path
       id="path1186-5-1"
       style="fill:#ffcc00;fill-opacity:1;stroke:#000000;stroke-width:0;stroke-linecap:butt;stroke-linejoin:miter;stroke-miterlimit:4;stroke-dasharray:none;stroke-opacity:1"
       d="m 753.13897,-69.34349 c -27.2839,-0.08 -53.4701,6.981612 -78.0308,24.602836 l -372.6897,260.958874 97.6808,97.6782 547.32635,-383.23991 z m 0,34.010952 h 86.4207 l -435.5929,305.001958 -48.8379,-48.8405 339.4922,-237.70547 c 15.4431,-10.485316 32.9396,-18.781488 58.5179,-18.455988 z" />
    <path
       id="path1190-7-6"
       style="fill:#ffcc00;fill-opacity:1;stroke:#000000;stroke-width:0;stroke-linecap:butt;stroke-linejoin:miter;stroke-miterlimit:4;stroke-dasharray:none;stroke-opacity:1"
       d="m 1049.6136,-69.34349 c -31.7435,0.6755 -57.17832,9.631116 -78.02538,24.608036 l -547.06985,383.053374 97.6782,97.6783 721.70373,-505.33971 z m 0,34.010952 h 86.4208 L 526.06657,391.76912 477.22867,342.92872 991.09568,-16.87655 c 21.84612,-13.95158 40.74082,-18.067388 58.51792,-18.455988 z" />
    <path
       id="path1194-6-4"
       style="fill:#ffcc00;fill-opacity:1;stroke:#000000;stroke-width:0;stroke-linecap:butt;stroke-linejoin:miter;stroke-miterlimit:4;stroke-dasharray:none;stroke-opacity:1"
       d="m 1002.6356,171.14409 c -28.1948,0 -54.25898,7.99319 -78.02298,24.61066 L 376.88227,579.26662 h 194.2868 c 31.4621,-0.5026 55.9221,-10.8893 78.023,-24.608 L 1196.9223,171.14409 Z m 0,34.01085 h 86.4207 L 629.68957,526.80492 c -17.8541,11.1537 -31.6618,18.5024 -58.5205,18.4535 h -86.4208 l 459.36955,-321.6475 c 19.0492,-11.49279 29.1719,-17.69948 58.51778,-18.45598 z" />
  </g>
</svg>
